<svg height="512" viewBox="0 0 64 64" width="512" xmlns="http://www.w3.org/2000/svg"><path d="m57.1 24.72a10.987 10.987 0 0 0 -14.34-13.994 11 11 0 0 0 -21.76 2.274c0 .432.03.881.076 1.338a10.912 10.912 0 0 0 -6.6.283 11.027 11.027 0 0 0 -6.576 14.103c1.793 4.9 7.571 10.666 12.972 10.734l.665 3.293a1 1 0 0 0 .98.8.987.987 0 0 0 .342-.061l.951-.346 7.253 19.207.937-.351.942.336 8.265-23.183.934.34a.978.978 0 0 0 .341.061 1 1 0 0 0 .981-.8l.664-3.293c5.4-.073 11.179-5.837 12.973-10.741zm-7.262-12.22a9.024 9.024 0 0 1 5.383 11.536c-1.969 5.381-8.434 10.764-12.911 9.133-2.785-1.007-4.22-4.542-4.672-7.686a18.765 18.765 0 0 0 5.362-12.483c0-.065-.009-.129-.01-.194a8.966 8.966 0 0 1 6.848-.306zm-17.838-8.5a9.01 9.01 0 0 1 9 9c0 5.73-4.237 13-9 13s-9-7.27-9-13a9.011 9.011 0 0 1 9-9zm.837 26h-1.674l.308-2.046c.177.014.35.046.529.046s.352-.032.529-.046zm-23.057-1.96a9.025 9.025 0 0 1 5.382-11.54 8.914 8.914 0 0 1 6.293.062c.9 3.763 3.085 7.749 6.053 9.879.151 4.477-1.415 9.486-4.821 10.729-4.462 1.63-10.938-3.752-12.907-9.13zm13.083 11.169c.171-.048.341-.1.51-.16s.323-.141.484-.214l.985 1.809-1.573.572zm4.292 1.5-1.608-2.949a11.892 11.892 0 0 0 3.5-6.467.984.984 0 0 0 .2.361 1 1 0 0 0 .753.346h1v24.521l-5.309-14.058.928-.338a1 1 0 0 0 .536-1.418zm5.845 15.508v-24.217h1a1 1 0 0 0 .989-1.149l-.5-3.327a8.39 8.39 0 0 0 1.357-.672 12.1 12.1 0 0 0 3.607 6.908l-1.605 2.947a1 1 0 0 0 .536 1.418l.945.344zm7.158-19.573.98-1.8c.161.074.323.145.49.2s.338.113.509.16l-.405 2.007z"/><path d="m57.005 41a2.853 2.853 0 0 1 -3.005-3v-.013a1 1 0 0 0 -2 .01 2.853 2.853 0 0 1 -3 3.003h-.015a1 1 0 0 0 .015 2 2.853 2.853 0 0 1 3 3v.013a1 1 0 0 0 2-.01 2.853 2.853 0 0 1 3-3.003h.015a1 1 0 0 0 -.01-2zm-3.988 1.852a4.363 4.363 0 0 0 -.87-.835 4.39 4.39 0 0 0 .836-.869 4.363 4.363 0 0 0 .87.835 4.39 4.39 0 0 0 -.836.869z"/><path d="m19.005 53a2.853 2.853 0 0 1 -3-3v-.013a1 1 0 0 0 -2.005.013 2.853 2.853 0 0 1 -3 3h-.015a1 1 0 0 0 .015 2 2.853 2.853 0 0 1 3 3v.013a1 1 0 0 0 2-.01 2.853 2.853 0 0 1 3-3.003h.015a1 1 0 0 0 -.01-2zm-3.988 1.852a4.413 4.413 0 0 0 -.869-.835 4.413 4.413 0 0 0 .835-.869 4.413 4.413 0 0 0 .869.835 4.413 4.413 0 0 0 -.835.869z"/><path d="m8 11v.01a1 1 0 0 0 2-.01 2.853 2.853 0 0 1 3-3h.015a1 1 0 0 0 -.01-2 2.853 2.853 0 0 1 -3.005-3v-.013a1 1 0 0 0 -2 .013 2.853 2.853 0 0 1 -3 3 .033.033 0 0 0 -.01 0 1 1 0 0 0 .01 2 2.853 2.853 0 0 1 3 3zm.983-4.855a4.413 4.413 0 0 0 .869.835 4.413 4.413 0 0 0 -.835.869 4.413 4.413 0 0 0 -.869-.835 4.413 4.413 0 0 0 .835-.866z"/></svg>